<svg xmlns="http://www.w3.org/2000/svg" version="1.1" viewBox="-5.0 -10.0 110.0 135.0">
 <path d="m50.922 75.461 1.5781 6.3594h-20l1.5781-6.3594zm43-56.898v-0.003906c-0.69141-0.42188-1.5195-0.54688-2.3047-0.34766-0.78125 0.19531-1.4531 0.69922-1.8555 1.3984l-1.4609 2.582 5.3398 3.0781 1.4883-2.5781c0.40625-0.69531 0.51562-1.5273 0.30078-2.3047-0.21094-0.77734-0.72656-1.4336-1.4297-1.8281zm-17 23.34 5.3398 3.0977 10.438-18.09-5.3398-3.0898zm-1 8v-0.003906c0.4375 0.26562 1 0.20703 1.3789-0.13672l3.6992-3.3008-4.7383-2.7617-1 4.9102c-0.10156 0.51562 0.15234 1.0352 0.61719 1.2695zm7.3477-2.9023 1.3281-2.3008v14h0.003906c0 1.5078-1.2227 2.7305-2.7305 2.7305h-33.172c-1.4805-0.019532-2.6797-1.2188-2.6992-2.6992v-40.281h5.75c2.0312-0.003907 3.6758-1.6484 3.6797-3.6797v-5.7695h26.441c1.5078 0 2.7305 1.2227 2.7305 2.7305v13.078l-9.9531 17.242-1.2109 6.1992h0.003906c-0.25781 1.2969 0.33984 2.6094 1.4805 3.2734 1.1445 0.66016 2.582 0.52344 3.5781-0.34375zm-22.629-26.809c0.023437 0.50781 0.42969 0.91797 0.9375 0.94922h15.25c0.52734 0 0.95312-0.42578 0.95312-0.94922 0-0.52734-0.42578-0.95312-0.95312-0.95312h-15.25c-0.50781 0.03125-0.91406 0.44141-0.9375 0.95312zm-7.8594 6c0.023438 0.51172 0.43359 0.92188 0.94922 0.94922h23.102-0.003906c0.52734 0 0.95312-0.42578 0.95312-0.94922 0-0.52734-0.42578-0.95312-0.95312-0.95312h-23.098c-0.52344 0.027344-0.93359 0.44922-0.94922 0.97266zm0 6c0 0.53125 0.41797 0.97266 0.94922 1h23.102-0.003906c0.26953 0.027344 0.53516-0.0625 0.73438-0.24219 0.19922-0.17969 0.31641-0.43359 0.31641-0.70312 0-0.26953-0.11719-0.52734-0.31641-0.70703-0.19922-0.17969-0.46484-0.26562-0.73438-0.23828h-23.098c-0.50781 0.023438-0.91406 0.42188-0.94922 0.92969zm17.527 18.109c-0.023438-0.53516-0.46484-0.95312-1-0.94922h-15.578c-0.41016 0.13281-0.6875 0.51563-0.6875 0.94922 0 0.42969 0.27734 0.8125 0.6875 0.94922h15.629c0.51562-0.023438 0.92578-0.4375 0.94922-0.94922zm0.58984-6c0-0.26562-0.10547-0.51953-0.29297-0.70703s-0.44141-0.29297-0.70703-0.29297h-16.168c-0.30469-0.10156-0.64062-0.050781-0.89844 0.14062-0.26172 0.1875-0.41406 0.48828-0.41406 0.80859s0.15234 0.62109 0.41406 0.80859c0.25781 0.19141 0.59375 0.24219 0.89844 0.14062h16.27c0.48438-0.046875 0.86328-0.43359 0.89844-0.91797zm2.2812-6c0.003906-0.26172-0.10156-0.51562-0.29297-0.69531-0.1875-0.17969-0.44531-0.27344-0.70703-0.25391h-18.449c-0.26953-0.027343-0.53516 0.058594-0.73438 0.23828-0.19922 0.17969-0.3125 0.4375-0.3125 0.70703 0 0.26562 0.11328 0.52344 0.3125 0.70312 0.19922 0.17969 0.46484 0.26562 0.73438 0.23828h18.5c0.25781 0.003907 0.50391-0.097656 0.68359-0.28516 0.17969-0.18359 0.27734-0.43359 0.26563-0.69141zm-20.18-22.301c0.33203-0.33594 0.51953-0.78906 0.51953-1.2617v-4.7383l-6.5781 6.5781h4.8008-0.003907c0.48438-0.007813 0.94141-0.21875 1.2617-0.57812zm25 47.359h2.5391v5.4492c-0.003906 2.625-2.1328 4.75-4.7578 4.75h-66.551c-2.625 0-4.7539-2.125-4.7617-4.75v-44.309c0.007812-2.625 2.1328-4.7539 4.7617-4.7617h34.84v2.5391l-34.52 0.003906c-0.67578-0.003906-1.3203 0.26172-1.8008 0.73438-0.47656 0.47656-0.74609 1.1211-0.75 1.793v40.512c0 1.4023 1.1367 2.5391 2.5391 2.5391h65.941c1.3945-0.011719 2.5195-1.1445 2.5195-2.5391zm-15.871 6.8789c0.003906-0.49219-0.28906-0.94141-0.74609-1.1328-0.45703-0.19141-0.98437-0.089844-1.3359 0.26172-0.35156 0.35156-0.45312 0.87891-0.26172 1.3359s0.64062 0.75 1.1367 0.74609c0.66406-0.003907 1.2031-0.54297 1.207-1.2109zm5.3711 0c0.003906-0.49219-0.28906-0.94141-0.74609-1.1328-0.45703-0.19141-0.98047-0.089844-1.332 0.25781-0.35156 0.34766-0.45703 0.875-0.26953 1.332 0.1875 0.45703 0.63281 0.75391 1.1289 0.75391 0.66797 0 1.2148-0.53906 1.2188-1.2109zm5.3594 0c0-0.48828-0.29297-0.92969-0.74609-1.1172s-0.97266-0.082032-1.3203 0.26172c-0.34375 0.34766-0.44922 0.86719-0.26172 1.3203s0.62891 0.74609 1.1172 0.74609c0.66797-0.003907 1.207-0.54297 1.2109-1.2109zm-28.789-46.059v34.551c0 2.5547 2.0742 4.6289 4.6289 4.6289h27.41v2c0 0.35156-0.28125 0.63672-0.62891 0.64062h-65.93c-0.35547 0-0.64062-0.28516-0.64062-0.64062v-40.551c0.003906-0.34766 0.28906-0.62891 0.64062-0.62891zm-6.1289 25c0-1.6562-1.3438-3-3-3h-15.941c-1.6562 0-3 1.3438-3 3v10.379c0 1.6602 1.3438 3 3 3h15.922c1.6562 0 3-1.3398 3-3zm0-18.551c0-1.6562-1.3438-3-3-3h-15.941c-1.6562 0-3 1.3438-3 3v10.371c0 1.6562 1.3438 3 3 3h15.922c1.6562 0 3-1.3438 3-3zm-3.0195 17.371h-15.922c-0.29688-0.003906-0.58203 0.11719-0.78906 0.32812-0.21094 0.21094-0.32813 0.49609-0.33203 0.79297v8.3984l5.1211-4.2812c0.43359-0.36719 0.98047-0.56641 1.5508-0.56641 0.56641 0.007813 1.1133 0.21094 1.5508 0.57812l1.8203 1.5391 1.8516-1.5508h-0.003907c0.43359-0.36719 0.98438-0.56641 1.5508-0.56641 0.56641 0.007813 1.1172 0.21094 1.5508 0.57812l3.1719 2.6914-0.003907-6.8125c0-0.61719-0.5-1.125-1.1172-1.1289zm-3.5898 6.5508h-0.003906c-0.125 0-0.24609 0.042969-0.33984 0.12891l-4.4609 3.7305h0.003906c-0.19141 0.16406-0.44141 0.24219-0.69141 0.22266-0.25-0.023437-0.48047-0.14844-0.64062-0.34375-0.30859-0.39062-0.25781-0.96094 0.12109-1.2891l1.1289-1-1.5586-1.3281c-0.09375-0.082031-0.21094-0.125-0.33203-0.13281-0.12109 0-0.23828 0.046876-0.32812 0.13281l-6.2305 5.2695c0.050781 0.15625 0.14062 0.30078 0.26172 0.41797 0.20703 0.21094 0.49219 0.32812 0.78906 0.33203h15.871c0.62109 0 1.1289-0.50781 1.1289-1.1328v-1.1367l-4.3984-3.7305h-0.003906c-0.085938-0.078125-0.19922-0.125-0.32031-0.13281zm4.3906-24.781h-0.003906c0.21094 0.21484 0.33203 0.5 0.33203 0.80078v10.43c0 0.30078-0.12109 0.58594-0.33203 0.80078-0.21094 0.20703-0.5 0.32812-0.79688 0.32812h-15.922c-0.29688 0-0.58203-0.11719-0.78906-0.32812-0.21094-0.21484-0.33203-0.5-0.33203-0.80078v-10.422c0-0.29688 0.12109-0.58594 0.33203-0.79688 0.20703-0.21094 0.49219-0.33203 0.78906-0.33203h15.922c0.29688 0.003906 0.58594 0.12109 0.79688 0.33203zm-5 6h-0.003906c-0.003906-0.35938-0.20312-0.6875-0.51953-0.85938l-4.7891-2.7695c-0.31641-0.21484-0.73047-0.23047-1.0625-0.039063-0.33203 0.19141-0.52734 0.55469-0.49609 0.9375v5.5391c-0.027343 0.38672 0.16797 0.75 0.50391 0.94141 0.33594 0.19141 0.75 0.17188 1.0664-0.050781l4.7812-2.7617-0.003906 0.003907c0.32812-0.20313 0.51172-0.57813 0.47266-0.96094zm27.859 48h-32.004c-1.3086 0.007813-2.3711 1.0664-2.3789 2.3789v2.5c0.015625 1.2695 1.0234 2.3047 2.2891 2.3516h32c1.3125 0 2.375-1.0586 2.3828-2.3711v-2.5273c-0.007813-1.2969-1.043-2.3555-2.3398-2.3828z" fill-rule="evenodd"/>
<text x="0.0" y="117.5" font-size="5.0" font-weight="bold" font-family="Arbeit Regular, Helvetica, Arial-Unicode, Arial, Sans-serif" fill="#000000">Created by Radhika Studio</text><text x="0.0" y="122.5" font-size="5.0" font-weight="bold" font-family="Arbeit Regular, Helvetica, Arial-Unicode, Arial, Sans-serif" fill="#000000">from Noun Project</text></svg>