<svg xmlns="http://www.w3.org/2000/svg" version="1.1" viewBox="-5.0 -10.0 110.0 135.0">
 <path d="m75.902 45.652-21.949 5.5078v1.0352c0 0.96094-0.37891 1.8359-0.99219 2.4844l-0.070313 0.078124c-0.65625 0.65625-1.5625 1.0625-2.5625 1.0625h-8.3789c-0.99609 0-1.9062-0.40625-2.5625-1.0625v-0.003906c-0.65625-0.65625-1.0625-1.5625-1.0625-2.5547v-1.0352l-21.945-5.5117v26.727c0 0.42188 0.19531 0.8125 0.50781 1.1016 0.33984 0.3125 0.8125 0.50391 1.3438 0.50391h47.086c-0.16406-0.79297-0.25-1.6172-0.25-2.457 0-3.3125 1.3438-6.3164 3.5156-8.4883 1.9141-1.9141 4.4727-3.1836 7.3203-3.4609zm-17.527-16.961h18.492c0.60547 0 1.1523 0.23438 1.543 0.60547 0.375 0.35938 0.61328 0.85156 0.61328 1.3945v11.773l-25.148 6.3125c-0.14844-0.69141-0.5-1.3086-0.98047-1.7891-0.65625-0.65625-1.5625-1.0625-2.5625-1.0625h-8.3789c-0.99609 0-1.9062 0.40625-2.5625 1.0625-0.48438 0.48438-0.83203 1.1016-0.98047 1.7891l-25.148-6.3125-0.003907-11.773c0-0.53906 0.23438-1.0312 0.61328-1.3945 0.39062-0.375 0.9375-0.60547 1.5469-0.60547h18.492v-7.6406c0-1.2383 1.0117-2.25 2.25-2.25h19.965c1.2383 0 2.25 1.0117 2.25 2.25zm-21.016 0h17.566v-6.4414h-17.566zm39.711 33.168c2.6719 0 5.0898 1.082 6.8359 2.832 1.75 1.75 2.832 4.168 2.832 6.8359 0 2.6719-1.082 5.0898-2.832 6.8359-1.75 1.75-4.168 2.832-6.8359 2.832-2.6719 0-5.0898-1.082-6.8359-2.832-1.75-1.75-2.832-4.168-2.832-6.8359 0-2.6719 1.082-5.0898 2.832-6.8359 1.7461-1.75 4.1641-2.832 6.8359-2.832zm-6.1562 8.4375c0.45703-0.45312 1.1953-0.45312 1.6523 0l3 3 6.0117-6.0117c0.45312-0.45312 1.1953-0.45312 1.6484 0 0.45313 0.45703 0.45313 1.1953 0 1.6523l-6.8359 6.8359c-0.45312 0.45312-1.1953 0.45312-1.6484 0l-3.8281-3.8281c-0.45312-0.45312-0.45312-1.1953 0-1.6484zm-19.293-18.102c0 0.33203-0.12891 0.64063-0.33594 0.86719l-0.042968 0.042969c-0.23438 0.23438-0.55469 0.37891-0.91016 0.37891h-8.3789c-0.35547 0-0.67578-0.14453-0.91016-0.37891s-0.37891-0.55469-0.37891-0.91016v-2.6484c0-0.35547 0.14453-0.67578 0.37891-0.91016s0.55469-0.37891 0.91016-0.37891h8.3789c0.35547 0 0.67578 0.14453 0.91016 0.37891 0.23437 0.23438 0.37891 0.55469 0.37891 0.91016z" fill-rule="evenodd"/>
<text x="0.0" y="117.5" font-size="5.0" font-weight="bold" font-family="Arbeit Regular, Helvetica, Arial-Unicode, Arial, Sans-serif" fill="#000000">Created by Iqbal Taufiq Alim</text><text x="0.0" y="122.5" font-size="5.0" font-weight="bold" font-family="Arbeit Regular, Helvetica, Arial-Unicode, Arial, Sans-serif" fill="#000000">from Noun Project</text></svg>