<svg xmlns="http://www.w3.org/2000/svg" viewBox="0 0 64 80" x="0px" y="0px"><path d="M35.529,41.417c1.929-1.19,3.221-3.315,3.221-5.743,0-3.722-3.028-6.75-6.75-6.75s-6.75,3.028-6.75,6.75c0,2.428,1.292,4.554,3.221,5.743-5.571,1.549-9.677,6.654-9.677,12.712v6.871c0,.414,.336,.75,.75,.75h24.911c.414,0,.75-.336,.75-.75v-6.871c0-6.058-4.105-11.163-9.677-12.712Z"/><path d="M52.073,41.417c1.929-1.19,3.221-3.315,3.221-5.743,0-3.722-3.028-6.75-6.75-6.75s-6.75,3.028-6.75,6.75c0,2.426,1.291,4.551,3.218,5.741-1.24,.349-2.409,.87-3.475,1.542,3.157,2.699,5.169,6.702,5.169,11.172v7.621h14.294c.414,0,.75-.336,.75-.75v-6.871c0-6.058-4.105-11.163-9.677-12.712Z"/><path d="M22.463,42.956c-1.067-.672-2.235-1.193-3.475-1.542,1.927-1.19,3.218-3.315,3.218-5.741,0-3.722-3.028-6.75-6.75-6.75s-6.75,3.028-6.75,6.75c0,2.428,1.292,4.554,3.221,5.743-5.571,1.549-9.677,6.654-9.677,12.712v6.871c0,.414,.336,.75,.75,.75h14.294v-7.621c0-4.47,2.011-8.473,5.169-11.172Z"/><path d="M38.433,27.456v3.066c1.017,1.267,1.663,2.839,1.787,4.555h.105c.308-4.27,3.872-7.653,8.22-7.653,1.851,0,3.555,.62,4.933,1.653v-1.621c0-6.058-4.105-11.163-9.676-12.712,1.929-1.19,3.221-3.315,3.221-5.743,0-3.722-3.028-6.75-6.75-6.75s-6.75,3.028-6.75,6.75c0,2.426,1.291,4.551,3.218,5.741-1.24,.349-2.409,.87-3.476,1.542,3.157,2.699,5.169,6.702,5.169,11.172Z"/><path d="M23.675,35.077h.105c.308-4.27,3.872-7.653,8.22-7.653,1.851,0,3.555,.62,4.933,1.653v-1.621c0-6.058-4.105-11.163-9.677-12.712,1.929-1.19,3.221-3.315,3.221-5.743,0-3.722-3.028-6.75-6.75-6.75s-6.75,3.028-6.75,6.75c0,2.428,1.292,4.554,3.221,5.743-5.571,1.549-9.676,6.654-9.676,12.712v1.621c1.378-1.033,3.082-1.653,4.933-1.653,4.347,0,7.912,3.383,8.22,7.653Z"/>
</svg>