<?xml version="1.0" standalone="no"?>
<!DOCTYPE svg PUBLIC "-//W3C//DTD SVG 20010904//EN"
 "http://www.w3.org/TR/2001/REC-SVG-20010904/DTD/svg10.dtd">
<svg version="1.0" xmlns="http://www.w3.org/2000/svg"
 width="800.000000pt" height="450.000000pt" viewBox="0 0 800.000000 450.000000"
 preserveAspectRatio="xMidYMid meet">

<g transform="translate(0.000000,450.000000) scale(0.100000,-0.100000)"
fill="#000000" stroke="none">
<path d="M3633 3483 c-33 -13 -5 -21 77 -22 83 -2 114 8 74 23 -18 7 -133 7
-151 -1z"/>
<path d="M3505 3403 c-597 -17 -975 -113 -1351 -340 -163 -99 -205 -150 -219
-264 l-6 -56 418 -6 c387 -7 758 -16 1260 -33 175 -6 203 -9 206 -23 4 -13 5
-13 6 2 1 20 -35 20 476 -3 334 -16 875 -55 808 -59 -28 -1 -31 -21 -3 -21 11
0 20 -4 20 -9 0 -5 14 -14 30 -20 25 -8 32 -7 36 4 4 10 11 12 22 6 20 -10 62
3 62 19 0 6 4 9 9 5 5 -3 12 -1 16 5 4 6 -10 10 -37 11 -24 1 -54 4 -68 8 -19
6 -10 9 39 14 35 4 79 7 97 7 23 0 34 5 34 14 0 9 -7 12 -20 9 -11 -3 -20 0
-20 6 0 6 5 11 12 11 6 0 9 2 6 5 -11 12 -87 15 -112 5 -18 -7 -26 -6 -26 1 0
7 -12 9 -30 7 -38 -6 -45 14 -38 113 8 102 45 132 117 95 32 -17 91 -80 92
-99 0 -12 95 -92 136 -115 13 -7 34 -12 46 -10 18 2 5 17 -75 85 -486 407
-844 572 -1333 612 -135 11 -458 19 -610 14z m119 -205 c18 -102 26 -210 17
-247 -6 -28 -4 -63 5 -113 9 -46 10 -76 4 -82 -8 -8 -767 8 -776 17 -2 1 -15
61 -29 132 -13 72 -29 144 -34 162 l-9 31 81 26 c186 57 344 84 592 99 147 9
142 10 149 -25z m566 6 c161 -21 299 -58 407 -109 136 -64 409 -255 346 -242
-20 5 -21 3 -8 -17 12 -18 12 -30 -2 -84 l-15 -62 -39 0 c-38 0 -39 1 -32 28
5 15 8 46 8 70 0 23 4 42 9 42 5 0 7 2 4 5 -14 15 -68 -34 -92 -83 l-27 -55
-57 6 c-31 3 -185 11 -342 17 -157 6 -317 13 -357 16 l-72 6 -10 51 c-5 29
-13 79 -16 112 -7 66 -29 151 -44 169 -8 9 -41 133 -41 153 0 9 251 -6 380
-23z m580 -30 c43 -18 50 -28 23 -39 -12 -4 -23 1 -32 14 -25 39 -39 26 -30
-29 4 -27 11 -54 14 -60 3 -5 4 -10 1 -10 -2 0 -11 -3 -20 -6 -13 -5 -16 2
-16 43 0 43 -3 51 -25 61 -29 13 -32 29 -7 35 33 9 52 7 92 -9z m154 -83 c44
-28 115 -74 157 -103 l76 -53 -28 -26 -27 -25 -69 53 c-37 29 -107 76 -155
104 -49 28 -88 53 -88 56 0 5 42 42 49 43 2 0 40 -22 85 -49z m-2145 -168 c13
-67 21 -128 18 -137 -6 -14 -21 -16 -104 -14 l-98 3 -3 97 c-3 92 -1 98 20
111 50 32 123 67 133 64 5 -2 21 -58 34 -124z m-269 -57 c0 -39 -3 -44 -25
-48 -14 -3 -25 -2 -25 2 0 11 27 74 36 83 13 12 14 8 14 -37z m2795 -185 c-3
-6 -11 -11 -17 -11 -6 0 -6 6 2 15 14 17 26 13 15 -4z m-135 -15 c0 -3 -4 -8
-10 -11 -5 -3 -10 -1 -10 4 0 6 5 11 10 11 6 0 10 -2 10 -4z"/>
<path d="M2376 3326 c3 -8 13 -12 25 -9 23 6 15 23 -11 23 -12 0 -17 -5 -14
-14z"/>
<path d="M4771 3296 c16 -15 89 -44 89 -36 0 5 -7 10 -15 10 -9 0 -18 6 -21
13 -2 7 -16 14 -31 15 -14 1 -25 0 -22 -2z"/>
<path d="M5280 3006 c0 -2 8 -10 18 -17 15 -13 16 -12 3 4 -13 16 -21 21 -21
13z"/>
<path d="M5320 2976 c0 -2 62 -54 138 -115 75 -60 161 -130 190 -154 l53 -44
72 14 c110 20 135 33 61 30 -34 -1 -67 3 -75 9 -8 6 -32 24 -54 40 -37 26 -38
27 -20 4 l20 -24 -25 17 c-82 56 -133 88 -200 127 -41 24 -94 56 -117 72 -24
16 -43 27 -43 24z"/>
<path d="M5328 2753 c-4 -17 -1 -23 19 -28 14 -3 28 -3 31 0 3 3 -4 8 -15 11
-12 4 -23 13 -25 23 -3 12 -5 11 -10 -6z"/>
<path d="M588 2713 c7 -3 16 -2 19 1 4 3 -2 6 -13 5 -11 0 -14 -3 -6 -6z"/>
<path d="M548 2703 c7 -3 16 -2 19 1 4 3 -2 6 -13 5 -11 0 -14 -3 -6 -6z"/>
<path d="M484 2684 c-19 -15 -19 -15 1 -6 11 5 27 12 35 15 13 5 13 6 -1 6 -8
1 -24 -6 -35 -15z"/>
<path d="M5938 2693 c12 -2 30 -2 40 0 9 3 -1 5 -23 4 -22 0 -30 -2 -17 -4z"/>
<path d="M6023 2683 c9 -2 25 -2 35 0 9 3 1 5 -18 5 -19 0 -27 -2 -17 -5z"/>
<path d="M6103 2673 c9 -2 23 -2 30 0 6 3 -1 5 -18 5 -16 0 -22 -2 -12 -5z"/>
<path d="M6173 2663 c9 -2 23 -2 30 0 6 3 -1 5 -18 5 -16 0 -22 -2 -12 -5z"/>
<path d="M3821 2644 c0 -11 3 -14 6 -6 3 7 2 16 -1 19 -3 4 -6 -2 -5 -13z"/>
<path d="M6243 2653 c9 -2 23 -2 30 0 6 3 -1 5 -18 5 -16 0 -22 -2 -12 -5z"/>
<path d="M467 2597 c-5 -32 -6 -61 -3 -65 13 -12 17 8 14 64 l-3 59 -8 -58z"/>
<path d="M6303 2643 c9 -2 23 -2 30 0 6 3 -1 5 -18 5 -16 0 -22 -2 -12 -5z"/>
<path d="M6363 2633 c9 -2 23 -2 30 0 6 3 -1 5 -18 5 -16 0 -22 -2 -12 -5z"/>
<path d="M6428 2623 c6 -2 18 -2 25 0 6 3 1 5 -13 5 -14 0 -19 -2 -12 -5z"/>
<path d="M3833 2580 c0 -25 2 -35 4 -22 2 12 2 32 0 45 -2 12 -4 2 -4 -23z"/>
<path d="M6488 2613 c7 -3 16 -2 19 1 4 3 -2 6 -13 5 -11 0 -14 -3 -6 -6z"/>
<path d="M6538 2603 c6 -2 18 -2 25 0 6 3 1 5 -13 5 -14 0 -19 -2 -12 -5z"/>
<path d="M5620 2597 c0 -4 8 -22 17 -40 9 -18 20 -48 24 -67 7 -34 7 -34 7 -5
1 25 -46 136 -48 112z"/>
<path d="M6588 2593 c6 -2 18 -2 25 0 6 3 1 5 -13 5 -14 0 -19 -2 -12 -5z"/>
<path d="M6648 2583 c6 -2 18 -2 25 0 6 3 1 5 -13 5 -14 0 -19 -2 -12 -5z"/>
<path d="M6698 2573 c6 -2 18 -2 25 0 6 3 1 5 -13 5 -14 0 -19 -2 -12 -5z"/>
<path d="M6748 2563 c7 -3 16 -2 19 1 4 3 -2 6 -13 5 -11 0 -14 -3 -6 -6z"/>
<path d="M6798 2553 c7 -3 16 -2 19 1 4 3 -2 6 -13 5 -11 0 -14 -3 -6 -6z"/>
<path d="M6848 2543 c7 -3 16 -2 19 1 4 3 -2 6 -13 5 -11 0 -14 -3 -6 -6z"/>
<path d="M6885 2530 c-3 -5 -2 -10 4 -10 5 0 13 5 16 10 3 6 2 10 -4 10 -5 0
-13 -4 -16 -10z"/>
<path d="M1975 2505 c6 -33 165 -359 190 -391 9 -10 -19 48 -61 130 -43 82
-90 181 -106 220 -16 39 -27 58 -23 41z"/>
<path d="M6927 2523 c-3 -5 33 -17 81 -28 48 -10 123 -29 167 -41 44 -13 81
-21 83 -19 5 4 -135 48 -228 70 -36 9 -72 18 -82 21 -9 3 -19 1 -21 -3z"/>
<path d="M447 2499 c-6 -22 6 -25 22 -5 9 10 8 15 -3 19 -8 3 -16 -2 -19 -14z"/>
<path d="M495 2515 c6 -2 23 -6 38 -9 15 -4 25 -11 22 -17 -5 -7 -12 -6 -21 2
-13 10 -20 1 -11 -16 3 -6 -32 -29 -57 -38 -14 -6 -17 -3 -12 8 3 10 2 13 -5
10 -6 -4 -8 -12 -6 -19 3 -6 -4 -27 -14 -46 -35 -68 -48 -112 -59 -210 -5 -46
-16 -93 -25 -106 -22 -34 -18 -41 6 -10 14 18 25 55 34 121 8 57 21 109 34
130 11 19 16 35 11 35 -16 0 24 59 43 64 16 4 16 2 5 -12 -7 -9 6 -1 28 18 76
64 82 101 16 99 -20 0 -32 -2 -27 -4z"/>
<path d="M2334 2475 c-10 -8 -14 -15 -7 -15 6 0 15 5 18 10 3 6 34 9 68 8 l62
-1 -60 -7 -60 -7 72 0 c57 1 70 4 61 14 -15 18 -129 17 -154 -2z"/>
<path d="M3843 2430 c0 -30 2 -43 4 -27 2 15 2 39 0 55 -2 15 -4 2 -4 -28z"/>
<path d="M4058 2458 c-16 -5 -28 -14 -28 -19 0 -6 8 -6 19 1 11 5 43 10 71 10
28 0 60 -5 71 -10 11 -6 19 -7 19 -1 0 25 -101 38 -152 19z"/>
<path d="M7280 2420 c8 -5 20 -10 25 -10 6 0 3 5 -5 10 -8 5 -19 10 -25 10 -5
0 -3 -5 5 -10z"/>
<path d="M5673 2370 c0 -30 2 -43 4 -27 2 15 2 39 0 55 -2 15 -4 2 -4 -28z"/>
<path d="M2264 2389 c21 -5 45 -17 52 -27 19 -25 144 -24 173 2 11 10 35 22
53 26 20 5 -37 8 -142 8 -128 0 -164 -2 -136 -9z"/>
<path d="M3979 2369 c-11 -7 -9 -9 7 -9 11 0 29 -9 39 -20 25 -28 131 -29 166
-1 13 10 38 23 54 29 24 9 2 11 -111 10 -77 0 -147 -4 -155 -9z"/>
<path d="M581 2323 c-1 -7 13 -56 30 -110 34 -104 69 -154 111 -152 19 1 18 2
-8 10 -41 12 -58 38 -98 161 -19 57 -35 97 -35 91z"/>
<path d="M3850 2250 c-4 -58 -7 -65 -27 -68 -19 -3 -23 -10 -23 -43 0 -35 2
-39 26 -39 14 0 23 -4 20 -9 -4 -5 -2 -20 3 -33 9 -21 10 -21 10 10 1 17 6 32
11 32 6 0 10 18 10 40 0 22 -4 40 -10 40 -5 0 -11 30 -12 68 l-4 67 -4 -65z"/>
<path d="M7303 2283 c26 -2 68 -2 95 0 26 2 4 3 -48 3 -52 0 -74 -1 -47 -3z"/>
<path d="M5656 2173 c-3 -54 -13 -156 -22 -226 -8 -70 -14 -133 -12 -139 3 -7
14 67 26 163 30 249 34 299 24 299 -5 0 -12 -44 -16 -97z"/>
<path d="M7393 2258 c3 -9 1 -19 -6 -21 -7 -3 -2 -4 11 -4 26 1 28 10 5 28
-15 12 -16 12 -10 -3z"/>
<path d="M7470 2230 c0 -5 4 -10 9 -10 5 0 12 -13 16 -30 7 -31 25 -51 25 -28
0 14 -37 78 -45 78 -3 0 -5 -4 -5 -10z"/>
<path d="M7512 2214 c7 -15 14 -21 16 -15 5 16 -5 41 -17 41 -7 0 -6 -10 1
-26z"/>
<path d="M6363 2210 c-83 -22 -176 -66 -244 -116 -114 -83 -219 -236 -253
-369 -18 -72 -46 -289 -46 -362 0 -48 2 -53 23 -54 45 -1 87 -25 125 -75 79
-101 251 -209 379 -238 267 -60 532 66 678 321 1 2 29 -9 63 -24 34 -14 65
-23 70 -19 4 4 7 112 7 239 0 256 -6 295 -68 410 -67 128 -252 259 -412 292
-97 20 -234 18 -322 -5z m249 -231 c123 -26 225 -107 280 -224 79 -169 47
-354 -84 -483 -63 -62 -95 -82 -176 -112 -52 -19 -76 -22 -159 -18 -86 3 -106
8 -165 37 -84 42 -149 109 -191 199 -28 59 -32 78 -32 152 0 47 4 94 9 105 5
11 10 22 11 25 7 24 61 120 68 120 4 0 20 -6 35 -13 24 -12 29 -11 48 9 l22
23 -24 22 c-14 13 -22 30 -19 39 4 13 4 13 -7 0 -7 -8 -22 -22 -33 -30 -11 -8
-4 3 15 23 99 107 257 156 402 126z"/>
<path d="M6427 1943 c-2 -5 8 -60 22 -123 26 -114 26 -115 54 -112 20 3 27 -1
27 -13 0 -10 -5 -15 -13 -12 -24 9 -44 -10 -31 -30 24 -38 35 -21 94 147 22
63 40 119 40 126 0 6 -10 14 -22 18 -33 8 -166 7 -171 -1z m113 -13 c0 -5 -23
-10 -51 -10 -31 0 -48 4 -44 10 3 6 26 10 51 10 24 0 44 -4 44 -10z m-30 -270
c0 -5 -5 -10 -11 -10 -5 0 -7 5 -4 10 3 6 8 10 11 10 2 0 4 -4 4 -10z"/>
<path d="M6385 1909 c-16 -5 -36 -7 -44 -4 -15 6 -91 -42 -91 -56 0 -19 172
-197 186 -192 11 4 11 10 0 36 -35 84 -92 187 -102 187 -6 0 -23 -10 -38 -21
-15 -12 -29 -19 -32 -16 -3 3 12 17 33 31 l38 27 17 -21 c14 -17 20 -19 42 -9
14 7 26 20 26 31 0 10 -1 18 -2 17 -2 0 -16 -5 -33 -10z"/>
<path d="M6714 1881 c15 -17 16 -19 1 -25 -9 -3 -21 -4 -26 0 -5 3 -9 1 -9 -3
0 -5 -27 -51 -61 -102 -81 -126 -66 -138 43 -35 45 44 93 91 106 106 l23 27
-34 25 c-41 31 -69 36 -43 7z"/>
<path d="M6172 1757 c-14 -16 -48 -105 -55 -143 l-6 -31 67 -7 c37 -3 91 -6
121 -6 46 0 52 2 38 13 -15 10 -10 12 33 12 51 1 67 -10 28 -18 -20 -5 -20 -5
2 -4 41 3 35 31 -12 62 -173 115 -207 134 -216 122z m-16 -78 c-9 -19 -15 -29
-16 -22 0 15 22 64 27 60 2 -2 -3 -19 -11 -38z m230 -54 c21 -16 7 -20 -34 -8
-18 4 -20 8 -10 14 18 12 21 11 44 -6z"/>
<path d="M6828 1756 c-21 -16 -24 -28 -5 -20 9 3 18 -9 25 -34 16 -53 15 -62
-6 -62 -13 0 -21 13 -30 46 -14 53 -11 53 -114 -7 -45 -26 -66 -44 -58 -49 15
-9 -14 -22 -34 -14 -8 3 -17 1 -21 -5 -3 -6 1 -11 10 -11 9 0 13 -5 10 -11 -4
-6 -14 -8 -22 -5 -8 3 -11 1 -8 -4 9 -15 45 -12 45 4 0 17 38 28 47 14 3 -6 1
-8 -4 -5 -6 4 -17 -1 -24 -10 -13 -15 -4 -16 110 -10 84 4 127 10 133 19 12
18 2 91 -19 138 -16 35 -20 38 -35 26z m-88 -86 c0 -5 -4 -10 -10 -10 -5 0
-12 0 -15 0 -3 0 -15 -5 -27 -11 -21 -9 -21 -9 2 10 27 22 50 27 50 11z"/>
<path d="M6620 1523 c0 -12 15 -26 43 -40 23 -12 37 -22 31 -22 -5 -1 -36 15
-68 34 -64 38 -78 43 -70 20 4 -8 1 -15 -5 -15 -6 0 -11 -9 -11 -20 0 -23 28
-27 36 -5 8 20 18 19 41 -2 10 -10 13 -14 6 -9 -9 6 -13 3 -13 -8 0 -9 -6 -16
-14 -16 -34 0 -37 -26 -10 -96 14 -38 29 -73 34 -77 4 -5 21 -1 36 9 26 17 28
17 15 1 -19 -23 0 -21 35 4 26 19 25 18 -4 -10 -31 -30 -60 -42 -46 -20 4 7 1
10 -7 7 -13 -5 -17 -54 -5 -65 7 -7 96 44 136 78 l34 29 -49 42 c-27 24 -65
58 -85 76 l-35 34 43 -33 c42 -32 44 -33 58 -15 7 10 11 23 8 28 -3 5 11 2 33
-7 47 -21 83 -35 87 -35 9 0 28 82 20 89 -5 5 -58 19 -119 31 -60 12 -120 24
-132 27 -18 4 -23 1 -23 -14z m108 -31 c2 -6 -1 -12 -7 -12 -16 0 -61 22 -61
30 0 12 63 -5 68 -18z m-158 -6 c0 -3 -4 -8 -10 -11 -5 -3 -10 -1 -10 4 0 6 5
11 10 11 6 0 10 -2 10 -4z m54 -136 c-11 -11 -16 -12 -26 -2 -10 10 -10 15 2
22 13 8 12 10 -2 10 -10 0 -18 6 -18 13 0 26 12 25 35 -1 21 -23 22 -29 9 -42z"/>
<path d="M6233 1507 c-90 -19 -92 -21 -86 -45 4 -17 2 -23 -6 -18 -6 4 -11 14
-11 22 0 8 -4 14 -10 14 -12 0 -12 -6 1 -52 11 -41 41 -55 32 -15 -4 21 -4 21
10 4 14 -17 20 -16 105 27 88 44 123 70 82 59 -11 -3 -20 -1 -20 5 0 6 8 13
18 15 52 14 -34 2 -115 -16z"/>
<path d="M6433 1493 c9 -2 17 -9 17 -15 0 -5 -7 -8 -15 -4 -8 3 -15 1 -15 -4
0 -15 37 -12 43 4 7 18 -1 26 -27 25 -17 -1 -18 -2 -3 -6z"/>
<path d="M6320 1410 c-41 -39 -78 -70 -82 -70 -5 0 -8 -4 -8 -10 0 -5 18 -10
39 -10 58 0 73 -8 60 -32 -6 -11 -17 -17 -24 -14 -9 3 -12 0 -8 -10 9 -24 -14
-16 -51 20 -27 25 -38 30 -46 21 -11 -13 20 -45 85 -89 40 -26 72 -35 60 -16
-3 6 -2 10 4 10 14 0 38 49 67 134 28 82 28 82 9 66 -9 -7 -16 -11 -18 -9 -27
47 -28 51 -16 65 23 28 3 12 -71 -56z"/>
<path d="M6492 1408 c-7 -13 -16 -44 -21 -70 -8 -43 -7 -48 10 -48 25 0 24
-17 -1 -25 -26 -8 -28 -61 -2 -68 13 -4 11 -5 -5 -6 -13 -1 -23 -7 -23 -16 0
-11 12 -15 49 -15 l50 0 -5 58 c-8 98 -26 212 -34 212 -3 0 -12 -10 -18 -22z"/>
<path d="M6576 1301 c-4 -6 -12 -9 -17 -6 -5 4 -9 -1 -9 -9 0 -17 17 -21 37
-8 7 4 9 13 4 21 -6 9 -11 10 -15 2z"/>
<path d="M1451 2195 c-78 -22 -169 -65 -220 -103 l-43 -34 -182 -1 -181 -1
173 -3 c94 -2 172 -7 172 -10 0 -4 -13 -21 -29 -38 -44 -45 -99 -142 -123
-215 -17 -53 -22 -99 -26 -253 l-4 -188 38 16 c22 9 44 19 49 21 6 2 23 -24
38 -59 122 -273 475 -416 759 -308 105 40 270 168 317 245 14 22 34 37 61 45
l40 12 0 52 c0 81 -28 296 -46 357 -59 197 -230 378 -424 447 -63 23 -95 27
-195 30 -84 2 -136 -2 -174 -12z m262 -220 c38 -8 92 -28 122 -45 67 -38 157
-134 148 -157 -4 -11 -3 -14 5 -9 8 5 10 1 5 -10 -4 -12 -3 -15 5 -10 8 5 10
1 5 -10 -4 -12 -3 -15 5 -10 8 5 10 1 5 -10 -4 -12 -3 -15 5 -10 8 5 10 2 6
-8 -4 -9 -1 -16 6 -16 7 0 10 -6 7 -14 -3 -8 -2 -16 4 -18 5 -2 12 -33 15 -69
16 -164 -68 -315 -218 -395 -68 -36 -80 -38 -173 -42 -82 -3 -111 0 -160 18
-83 29 -157 82 -209 151 -65 87 -89 156 -89 259 0 201 130 364 323 406 74 16
103 16 183 -1z"/>
<path d="M1538 1943 c-10 -2 -18 -10 -18 -16 0 -9 -3 -8 -8 1 -6 9 -16 10 -40
1 -18 -6 -32 -15 -32 -20 0 -5 -6 -9 -12 -9 -21 -1 -85 -61 -70 -67 6 -2 12
-9 12 -15 0 -6 -6 -6 -15 2 -12 10 -17 7 -26 -14 -7 -14 -17 -26 -23 -26 -6 0
-4 -4 4 -10 10 -6 24 -3 45 10 l32 19 97 -89 c141 -130 142 -124 19 66 -46 72
-56 81 -79 78 l-27 -3 21 22 c20 19 23 20 34 5 19 -24 68 -13 68 16 0 11 20
-37 44 -107 24 -70 50 -134 56 -142 17 -21 40 -1 40 35 0 15 4 40 9 56 5 16
14 55 21 87 11 57 13 58 38 52 15 -4 29 -11 30 -16 2 -5 13 1 23 13 l20 23
-15 -32 c-9 -17 -13 -38 -10 -47 7 -19 -16 -63 -25 -48 -4 7 -19 -12 -35 -45
-21 -44 -25 -58 -14 -64 9 -6 35 15 85 69 l73 77 24 -27 c21 -23 26 -25 42
-13 11 7 27 14 37 16 15 3 10 13 -28 54 -25 28 -42 41 -38 30 6 -18 3 -17 -28
7 -75 56 -247 93 -331 71z m152 -13 c0 -5 -20 -10 -45 -10 -25 0 -45 5 -45 10
0 6 20 10 45 10 25 0 45 -4 45 -10z m170 -71 c33 -30 34 -30 5 -13 -35 21 -60
44 -48 44 5 0 24 -14 43 -31z m-213 -125 c-3 -3 -12 -4 -19 -1 -8 3 -5 6 6 6
11 1 17 -2 13 -5z m3 -38 c0 -6 -9 -12 -20 -13 -13 -1 -20 4 -20 17 0 13 5 17
20 13 11 -3 20 -11 20 -17z m0 -36 c0 -5 -4 -10 -10 -10 -5 0 -10 5 -10 10 0
6 5 10 10 10 6 0 10 -4 10 -10z"/>
<path d="M1875 1718 c-44 -28 -91 -60 -105 -71 -23 -18 -23 -19 -3 -13 12 4
24 2 28 -4 3 -5 2 -10 -4 -10 -6 0 -8 -6 -5 -14 3 -9 12 -12 22 -8 15 5 15 4
3 -11 -12 -16 -9 -17 36 -17 28 0 78 3 112 6 56 6 61 9 61 31 0 30 -36 133
-52 150 -10 10 -29 2 -93 -39z m114 -33 c0 -5 -6 1 -14 15 -8 14 -14 30 -14
35 0 6 6 -1 14 -15 8 -14 14 -29 14 -35z m-36 -5 c5 -20 -14 -30 -56 -28 -15
1 -14 6 9 29 29 31 39 30 47 -1z m44 -32 c-3 -8 -6 -5 -6 6 -1 11 2 17 5 13 3
-3 4 -12 1 -19z"/>
<path d="M1280 1741 c-5 -11 -16 -46 -24 -78 -20 -88 -11 -93 165 -93 138 0
163 6 139 35 -15 18 -60 12 -77 -10 -7 -11 -13 -14 -13 -9 0 6 9 20 19 31 l20
21 -81 47 c-44 25 -82 44 -86 41 -3 -3 -11 3 -19 14 -18 25 -29 25 -43 1z m43
-62 c-5 -19 -17 -35 -26 -37 -20 -4 -22 20 -6 67 10 29 13 31 26 18 11 -10 12
-23 6 -48z m237 -83 c0 -3 -4 -8 -10 -11 -5 -3 -10 -1 -10 4 0 6 5 11 10 11 6
0 10 -2 10 -4z"/>
<path d="M1717 1613 c-15 -14 -7 -43 12 -43 17 0 48 26 40 34 -10 9 -46 16
-52 9z m28 -23 c-3 -5 -10 -10 -16 -10 -5 0 -9 5 -9 10 0 6 7 10 16 10 8 0 12
-4 9 -10z"/>
<path d="M1415 1519 c-49 -11 -91 -23 -93 -27 -1 -4 -17 -6 -36 -4 -44 5 -50
-7 -30 -58 18 -44 25 -45 86 -14 32 17 56 10 60 -18 3 -19 9 -16 53 25 54 49
56 69 5 42 -18 -9 -34 -15 -36 -12 -2 2 18 14 45 27 35 16 49 28 48 41 -1 11
-4 19 -7 18 -3 -1 -45 -10 -95 -20z m65 -8 c0 -5 -8 -11 -17 -14 -10 -2 -26
-8 -37 -12 -14 -6 -17 -4 -14 6 3 8 18 17 34 20 16 4 30 7 32 8 1 0 2 -3 2 -8z
m-160 -84 c0 -5 -4 -5 -10 -2 -5 3 -10 14 -10 23 0 15 2 15 10 2 5 -8 10 -19
10 -23z"/>
<path d="M1788 1526 c12 -5 22 -13 22 -18 0 -4 -10 -8 -22 -8 -27 0 57 -50
133 -79 42 -16 47 -17 57 -2 11 14 12 14 9 -3 -1 -10 3 -21 9 -23 11 -4 24 41
24 81 -1 18 -3 16 -16 -9 -14 -30 -14 -30 -9 -3 4 23 1 28 -17 32 -19 4 -166
33 -202 40 -6 1 -1 -2 12 -8z"/>
<path d="M1556 1503 c3 -15 7 -30 10 -35 8 -13 34 -9 40 7 4 8 10 12 15 9 5
-3 9 0 9 5 0 17 -18 13 -28 -5 -6 -10 -14 -14 -22 -9 -9 5 -9 9 -1 15 15 8 3
40 -14 40 -9 0 -12 -9 -9 -27z"/>
<path d="M1673 1502 c-13 -2 -23 -8 -23 -13 0 -6 5 -7 10 -4 6 3 13 -1 16 -9
7 -17 44 -22 44 -6 0 5 -7 7 -15 4 -8 -4 -15 -1 -15 4 0 6 8 12 18 14 26 5 -7
15 -35 10z"/>
<path d="M1748 1468 c11 -14 11 -21 -4 -43 -14 -21 -19 -23 -32 -13 -13 11
-14 9 -7 -12 4 -14 14 -40 21 -59 8 -19 13 -36 10 -38 -2 -2 -9 10 -16 27 -9
23 -15 28 -21 18 -7 -10 -9 -10 -10 2 0 8 -5 4 -9 -10 -7 -22 -8 -20 -10 15
-2 48 -17 102 -19 70 -1 -15 -3 -17 -10 -6 -11 18 -18 5 -26 -51 -7 -44 -9
-47 -35 -45 l-27 2 18 53 c10 29 14 50 9 47 -5 -3 -11 -1 -15 5 -3 5 -15 10
-25 10 -14 0 -18 5 -13 17 8 20 -34 -12 -132 -101 l-60 -54 24 -26 c27 -29
112 -86 128 -86 6 0 18 20 27 44 16 42 19 44 46 36 16 -4 31 -6 34 -2 3 3 6
-20 6 -51 l0 -57 48 0 49 0 -11 49 c-6 34 -15 51 -28 54 -10 3 -18 10 -18 16
0 16 37 13 43 -3 6 -15 47 -11 58 6 3 5 14 -9 24 -32 10 -22 22 -40 27 -40 5
0 6 -4 3 -10 -22 -36 90 25 134 74 20 21 22 29 12 39 -9 9 -14 9 -20 -2 -5 -8
-14 -10 -21 -6 -8 5 -11 4 -6 -3 3 -6 -7 -20 -24 -32 -33 -23 -41 -18 -12 8 9
10 13 14 8 10 -15 -12 -42 -9 -54 5 -9 10 -4 17 19 31 16 9 27 22 24 27 -11
17 8 9 32 -13 13 -12 23 -17 23 -11 0 6 -16 23 -36 38 -28 22 -33 30 -23 37
11 7 10 8 -4 4 -12 -4 -33 8 -65 37 -26 23 -41 34 -34 25z m-198 -102 c-6 -20
-15 -38 -20 -41 -10 -6 -60 33 -60 47 0 7 5 6 14 -1 11 -9 19 -6 37 18 30 36
45 24 29 -23z m-105 -66 c3 -6 -1 -7 -9 -4 -28 11 -17 -4 20 -26 19 -12 33
-25 30 -27 -6 -7 -76 36 -76 46 0 20 25 27 35 11z m222 -106 c-3 -3 -12 -4
-19 -1 -8 3 -5 6 6 6 11 1 17 -2 13 -5z"/>
<path d="M7443 2178 c4 -12 7 -26 7 -30 0 -4 8 -6 19 -5 23 1 17 28 -11 46
-19 12 -20 11 -15 -11z"/>
<path d="M2410 2155 c0 -33 2 -35 34 -35 l34 0 8 -90 7 -90 33 0 34 0 0 90 0
90 35 0 c33 0 35 2 35 35 l0 35 -110 0 -110 0 0 -35z"/>
<path d="M2705 2180 c-4 -6 -21 -54 -40 -108 -18 -53 -36 -105 -40 -114 -11
-28 60 -25 75 2 8 15 21 20 50 20 30 0 40 -5 45 -20 6 -18 15 -20 85 -20 l78
0 23 37 22 36 24 -29 c12 -16 23 -32 23 -36 0 -5 18 -8 40 -8 22 0 40 3 40 8
0 4 -16 31 -35 59 -19 29 -35 55 -35 59 0 4 14 29 30 56 17 26 30 50 30 53 0
3 -18 5 -40 5 -34 0 -42 -4 -55 -30 -9 -16 -18 -30 -20 -30 -2 0 -11 14 -20
30 -14 27 -21 30 -61 30 l-45 0 36 -52 c19 -29 35 -56 35 -60 0 -13 -61 -108
-69 -108 -5 0 -25 46 -46 103 -20 56 -42 108 -47 115 -12 15 -74 16 -83 2z
m48 -138 c-21 -5 -24 1 -16 39 l6 33 12 -34 c10 -29 10 -36 -2 -38z"/>
<path d="M3160 2059 l0 -120 38 3 37 3 3 118 3 117 -41 0 -40 0 0 -121z"/>
<path d="M3320 2140 l0 -40 40 0 40 0 0 -41 0 -41 -37 4 -38 3 0 -40 c0 -40 0
-40 40 -40 39 0 40 1 43 38 3 35 5 37 37 37 32 0 34 -2 37 -37 3 -37 4 -38 43
-38 l40 0 -3 38 -4 37 41 0 41 0 0 -40 0 -40 40 0 40 0 0 40 0 40 40 0 40 0 0
-40 0 -40 40 0 c40 0 40 0 40 39 0 43 -11 52 -53 44 -26 -5 -27 -3 -27 36 0
42 -1 43 -50 45 -21 1 -25 6 -28 39 -3 36 -4 37 -43 37 -39 0 -39 0 -39 -40
l0 -40 40 0 40 0 0 -41 0 -40 -37 3 c-35 3 -38 5 -36 32 3 40 -14 58 -51 54
-22 -2 -31 1 -32 12 -4 63 -2 60 -44 60 -40 0 -40 0 -40 -38 0 -39 0 -40 -62
-33 -5 1 -8 17 -8 36 0 35 0 35 -45 35 l-45 0 0 -40z m240 -80 c0 -39 -1 -40
-35 -40 -34 0 -35 1 -35 40 0 39 1 40 35 40 34 0 35 -1 35 -40z"/>
<path d="M3958 2143 c-3 -36 -5 -38 -40 -41 -37 -3 -38 -4 -38 -43 0 -39 0
-39 40 -39 l40 0 0 -40 0 -40 40 0 40 0 0 40 0 40 40 0 40 0 0 -40 0 -40 40 0
40 0 0 40 c0 39 1 40 35 40 29 0 35 -4 36 -22 3 -53 3 -53 44 -53 39 0 40 1
43 38 3 35 5 37 37 37 32 0 34 -2 37 -37 3 -36 5 -38 41 -41 l37 -3 0 40 c0
42 -5 46 -52 42 -15 -2 -18 6 -18 38 0 40 1 41 35 41 34 0 35 -1 35 -40 l0
-40 40 0 c39 0 40 -1 40 -33 0 -42 2 -44 45 -39 32 4 35 7 35 38 0 33 -1 34
-40 34 l-40 0 0 40 0 40 40 0 c41 0 47 -9 41 -57 -1 -8 11 -13 34 -13 22 0 34
4 30 10 -4 6 -11 8 -16 4 -6 -3 -5 3 2 15 10 14 15 17 21 8 5 -8 8 -4 8 11 0
12 -3 21 -7 21 -5 -1 -23 -1 -40 0 -32 1 -33 3 -33 41 l0 40 -40 0 -40 0 0
-40 c0 -40 0 -41 -35 -38 -33 2 -35 4 -35 40 l0 38 -45 0 -45 0 0 -38 c0 -37
-1 -39 -35 -39 -34 0 -35 2 -35 39 l0 38 -45 0 -45 0 0 -39 c0 -37 -2 -39 -26
-35 -32 6 -56 -12 -53 -40 3 -41 -1 -46 -36 -46 -34 0 -35 1 -35 40 l0 40 40
0 40 0 0 40 0 40 -40 0 c-34 0 -40 -3 -42 -22 0 -13 -1 -30 -2 -38 -1 -9 -12
-15 -33 -15 -40 -1 -46 -7 -47 -47 -1 -31 -4 -33 -38 -36 l-38 -3 0 40 0 41
40 0 40 0 0 40 c0 40 0 40 -39 40 -39 0 -40 -1 -43 -37z m392 -83 c0 -39 -1
-40 -35 -40 -34 0 -35 1 -35 40 0 39 1 40 35 40 34 0 35 -1 35 -40z"/>
<path d="M7460 2106 c0 -2 9 -6 20 -9 11 -3 18 -1 14 4 -5 9 -34 13 -34 5z"/>
<path d="M2195 2060 c9 -16 18 -30 21 -30 2 0 -2 14 -11 30 -9 17 -18 30 -21
30 -2 0 2 -13 11 -30z"/>
<path d="M7552 2050 c0 -14 2 -19 5 -12 2 6 2 18 0 25 -3 6 -5 1 -5 -13z"/>
<path d="M2230 2000 c6 -11 13 -20 16 -20 2 0 0 9 -6 20 -6 11 -13 20 -16 20
-2 0 0 -9 6 -20z"/>
<path d="M7260 1990 c-63 -3 -110 -7 -105 -9 25 -6 221 1 234 9 14 8 14 9 1 8
-8 -1 -67 -5 -130 -8z"/>
<path d="M2266 1940 c40 -83 282 -436 345 -502 l36 -38 1119 2 c615 2 873 4
572 5 l-547 3 -4 23 -4 22 -2 -22 -1 -23 -567 0 -566 0 -40 43 c-21 23 -105
142 -186 263 -80 122 -152 230 -159 240 -7 11 -5 3 4 -16z"/>
<path d="M3842 1910 c0 -14 2 -19 5 -12 2 6 2 18 0 25 -3 6 -5 1 -5 -13z"/>
<path d="M3832 1770 c0 -19 2 -27 5 -17 2 9 2 25 0 35 -3 9 -5 1 -5 -18z"/>
<path d="M5612 1760 c0 -19 2 -27 5 -17 2 9 2 25 0 35 -3 9 -5 1 -5 -18z"/>
<path d="M5599 1685 c-6 -40 -4 -53 7 -43 3 3 4 23 2 44 l-3 39 -6 -40z"/>
<path d="M3820 1685 c0 -14 2 -25 4 -25 2 0 6 11 8 25 3 14 1 25 -3 25 -5 0
-9 -11 -9 -25z"/>
<path d="M7505 1700 c-10 -16 22 -113 45 -138 31 -33 68 -55 80 -47 6 3 10 44
10 94 l0 88 -37 7 c-56 9 -91 7 -98 -4z m98 -56 c3 -16 0 -28 -10 -31 -20 -8
-26 2 -19 32 8 32 22 32 29 -1z"/>
<path d="M5593 1595 c0 -22 2 -30 4 -17 2 12 2 30 0 40 -3 9 -5 -1 -4 -23z"/>
<path d="M5583 1515 c0 -22 2 -30 4 -17 2 12 2 30 0 40 -3 9 -5 -1 -4 -23z"/>
<path d="M3791 1494 c0 -11 3 -14 6 -6 3 7 2 16 -1 19 -3 4 -6 -2 -5 -13z"/>
<path d="M5570 1433 c-3 -23 -2 -39 3 -34 5 5 7 24 5 42 -3 33 -4 33 -8 -8z"/>
<path d="M5268 1393 c39 -2 105 -2 145 0 39 1 7 3 -73 3 -80 0 -112 -2 -72 -3z"/>
</g>
</svg>
